# xmcd
#
# Track frame offsets: 
#        150
#        21050
#        38725
#        56720
#        73720
#        92335
#        106687
#        124165
#        145185
#        163025
#        179385
#        197660
#        218210
#        237352
#
# Disc length: 3406 seconds
#
# Revision: 0
# Processed by: cddbd v1.5.2PL0 Copyright (c) Steve Scherf et al.
# Submitted via: ExactAudioCopyFreeDBPlugin 1.0
#
DISCID=be0d4c0e
DTITLE=細川たかし - 夢暦
DYEAR=1900
DGENRE=Country
TTITLE0=夢暦
TTITLE1=さだめ川
TTITLE2=浪花節だよ人生は
TTITLE3=北酒場
TTITLE4=女ごころ
TTITLE5=港夜景
TTITLE6=失切の渡し
TTITLE7=湯けむり情話
TTITLE8=遠い旅路
TTITLE9=心のこり
TTITLE10=ゆきずり
TTITLE11=新宿情話
TTITLE12=おんな岬
TTITLE13=女にて候
EXTD=
EXTT0=
EXTT1=
EXTT2=
EXTT3=
EXTT4=
EXTT5=
EXTT6=
EXTT7=
EXTT8=
EXTT9=
EXTT10=
EXTT11=
EXTT12=
EXTT13=
PLAYORDER=
